<svg width="111" height="42" viewBox="0 0 111 42" fill="none" xmlns="http://www.w3.org/2000/svg">
<path d="M42.7933 20.0947C41.7078 20.0947 40.7814 19.8506 40.0142 19.3623C39.2656 18.8553 38.6948 18.1604 38.3018 17.2778C37.9275 16.3763 37.7404 15.3434 37.7404 14.1791C37.7404 13.0899 37.8994 12.0382 38.2176 11.0241C38.5544 9.99118 39.0223 9.07097 39.6212 8.26343C40.2387 7.4559 40.9686 6.81739 41.8107 6.34789C42.6529 5.87839 43.5886 5.64365 44.6179 5.64365C45.3478 5.64365 46.0215 5.79389 46.6391 6.09436C47.2566 6.39484 47.7432 6.86434 48.0988 7.50285C48.4544 8.14136 48.6041 8.97707 48.5479 10.01L47.8742 9.55924L48.6041 5.92534H52.1972L50.2603 19.813H46.6391L46.8917 16.2355L47.8461 15.7848C47.4344 16.9679 46.9479 17.8787 46.3864 18.5172C45.825 19.137 45.2261 19.5595 44.5898 19.7849C43.9723 19.9914 43.3734 20.0947 42.7933 20.0947ZM44.0003 16.5453C44.6366 16.5453 45.1887 16.4139 45.6566 16.151C46.1431 15.8693 46.5455 15.4937 46.8636 15.0242C47.2005 14.5547 47.4438 14.0476 47.5935 13.503C47.7619 12.9396 47.8461 12.3856 47.8461 11.841C47.8461 11.2776 47.7526 10.7987 47.5654 10.4043C47.3783 10.01 47.1069 9.70948 46.7513 9.5029C46.3958 9.27754 45.9653 9.16486 45.4601 9.16486C44.8238 9.16486 44.2623 9.30571 43.7758 9.58741C43.2892 9.86911 42.8868 10.2447 42.5687 10.7142C42.2505 11.1649 42.0072 11.672 41.8388 12.2354C41.6891 12.7988 41.6142 13.3528 41.6142 13.8974C41.6142 14.442 41.6985 14.9209 41.8669 15.334C42.054 15.7284 42.3254 16.0289 42.681 16.2355C43.0553 16.442 43.495 16.5453 44.0003 16.5453Z" fill="white"/>
<path d="M59.5869 20.0947C58.3892 20.0947 57.3505 19.7849 56.4709 19.1651C55.6101 18.5266 54.9551 17.6627 54.5059 16.5735C54.0568 15.4843 53.8322 14.2448 53.8322 12.8551C53.8322 11.3152 54.0848 10.01 54.5901 8.93951C55.1141 7.86906 55.8159 7.05213 56.6955 6.48874C57.5751 5.92534 58.5389 5.64365 59.5869 5.64365C60.298 5.64365 60.9624 5.79389 61.58 6.09436C62.2163 6.37606 62.759 6.83617 63.2081 7.47468C63.676 8.09441 63.9848 8.92073 64.1345 9.95362L63.4046 9.55924V0.178717H67.2504V19.813H63.4046V16.2355L64.2468 15.6157C64.0222 16.8176 63.6573 17.7472 63.152 18.4045C62.6467 19.0431 62.0853 19.4844 61.4677 19.7285C60.8501 19.9727 60.2232 20.0947 59.5869 20.0947ZM60.7378 16.5453C61.3554 16.5453 61.8888 16.3951 62.3379 16.0946C62.7871 15.7941 63.1333 15.3716 63.3766 14.827C63.6198 14.2636 63.7415 13.6063 63.7415 12.8551C63.7415 12.1039 63.6198 11.456 63.3766 10.9114C63.1333 10.3668 62.7871 9.94423 62.3379 9.64375C61.8888 9.32449 61.3554 9.16486 60.7378 9.16486C60.1202 9.16486 59.5775 9.3151 59.1097 9.61558C58.6605 9.91606 58.3049 10.3386 58.0429 10.8832C57.7997 11.4278 57.678 12.0851 57.678 12.8551C57.678 13.6251 57.7997 14.2918 58.0429 14.8552C58.3049 15.3998 58.6605 15.8223 59.1097 16.1228C59.5775 16.4045 60.1202 16.5453 60.7378 16.5453Z" fill="white"/>
<path d="M74.8666 19.813L69.2242 5.92534H73.435L76.4386 14.7706L79.4984 5.92534H83.653L78.0106 19.813H74.8666Z" fill="white"/>
<path d="M85.5917 19.813V5.92534H89.4376V19.813H85.5917ZM85.5356 3.89712V0.178717H89.5498V3.89712H85.5356Z" fill="white"/>
<path d="M74.8666 19.813L69.2242 5.92534H73.435L76.4386 14.7706L79.4984 5.92534H83.653L78.0106 19.813H74.8666Z" fill="white"/>
<path d="M43.1947 36.3563C42.1459 36.3563 41.2283 36.2061 40.4417 35.9056C39.6552 35.6051 38.9997 35.2389 38.4753 34.807C37.9509 34.3562 37.5202 33.9431 37.1831 33.5675L39.8237 31.2576C40.1421 31.7271 40.5728 32.1778 41.1159 32.6097C41.6777 33.0417 42.38 33.2576 43.2228 33.2576C43.8408 33.2576 44.3183 33.1356 44.6554 32.8914C45.0113 32.6473 45.1892 32.3656 45.1892 32.0463C45.1892 31.7459 45.0768 31.5111 44.8521 31.3421C44.6274 31.1543 44.3277 30.9947 43.9532 30.8632C43.5786 30.7317 43.1572 30.6003 42.689 30.4688C42.1647 30.3374 41.6216 30.1777 41.0597 29.9899C40.4979 29.7834 39.9735 29.5204 39.4866 29.2012C38.9997 28.8819 38.6064 28.4782 38.3068 27.9899C38.0071 27.4828 37.8573 26.8537 37.8573 26.1025C37.8573 24.8443 38.3442 23.8302 39.3181 23.0602C40.3106 22.2902 41.6028 21.9052 43.1947 21.9052C44.3183 21.9052 45.339 22.1212 46.2567 22.5531C47.1743 22.9851 47.9047 23.6142 48.4478 24.4405L46.06 26.3279C45.7229 25.8396 45.2922 25.464 44.7678 25.2011C44.2434 24.9194 43.691 24.7785 43.1104 24.7785C42.6235 24.7785 42.2208 24.8724 41.9025 25.0602C41.6028 25.2292 41.453 25.4546 41.453 25.7363C41.453 25.9429 41.5279 26.1213 41.6777 26.2715C41.8276 26.403 42.071 26.5251 42.4081 26.6377C42.7452 26.7504 43.204 26.8819 43.7846 27.0321C44.3277 27.1636 44.8989 27.3232 45.4982 27.511C46.0975 27.6988 46.6593 27.9617 47.1837 28.2998C47.7268 28.619 48.1575 29.0509 48.4759 29.5956C48.813 30.1214 48.9815 30.7881 48.9815 31.5956C48.9815 32.5346 48.7381 33.3703 48.2512 34.1027C47.783 34.8164 47.1088 35.3704 46.2286 35.7647C45.3671 36.1591 44.3558 36.3563 43.1947 36.3563Z" fill="white"/>
<path d="M51.585 41.8212V22.1869H55.4055V25.7645L54.5627 26.3279C54.8062 25.126 55.1714 24.2057 55.6583 23.5672C56.164 22.9287 56.7258 22.4968 57.3438 22.2714C57.9805 22.0273 58.6079 21.9052 59.2259 21.9052C60.4432 21.9052 61.4826 22.2245 62.3441 22.863C63.2056 23.4827 63.861 24.3372 64.3105 25.4264C64.7787 26.5157 65.0128 27.7551 65.0128 29.1448C65.0128 30.666 64.7506 31.9712 64.2262 33.0604C63.7018 34.1309 62.9996 34.9478 62.1194 35.5112C61.2579 36.0746 60.2934 36.3563 59.2259 36.3563C58.533 36.3563 57.8682 36.2154 57.2314 35.9338C56.5947 35.6521 56.0516 35.1919 55.6021 34.5534C55.1527 33.9149 54.8437 33.0886 54.6751 32.0745L55.4055 32.4407V41.8212H51.585ZM58.1023 32.8351C58.7203 32.8351 59.254 32.6848 59.7035 32.3844C60.1717 32.0839 60.5275 31.6613 60.771 31.1167C61.0144 30.5533 61.1362 29.896 61.1362 29.1448C61.1362 28.3749 61.0144 27.7176 60.771 27.173C60.5275 26.6096 60.1717 26.187 59.7035 25.9053C59.254 25.6048 58.7203 25.4546 58.1023 25.4546C57.4843 25.4546 56.9412 25.6048 56.473 25.9053C56.0235 26.2058 55.677 26.6283 55.4336 27.173C55.1901 27.7176 55.0684 28.3749 55.0684 29.1448C55.0684 29.896 55.1901 30.5439 55.4336 31.0886C55.677 31.6332 56.0235 32.0651 56.473 32.3844C56.9412 32.6848 57.4843 32.8351 58.1023 32.8351Z" fill="white"/>
<path d="M72.0163 36.3563C70.9301 36.3563 70.0031 36.1122 69.2353 35.6239C68.4862 35.1168 67.915 34.422 67.5217 33.5393C67.1471 32.6379 66.9599 31.605 66.9599 30.4407C66.9599 29.3514 67.1191 28.2998 67.4374 27.2856C67.7745 26.2528 68.2427 25.3325 68.842 24.525C69.46 23.7175 70.1904 23.079 71.0331 22.6095C71.8759 22.14 72.8123 21.9052 73.8423 21.9052C74.5727 21.9052 75.2469 22.0555 75.8649 22.3559C76.4829 22.6564 76.9698 23.1259 77.3256 23.7644C77.6815 24.4029 77.8313 25.2386 77.7751 26.2715L77.1009 25.8208L77.8313 22.1869H81.427L79.4887 36.0746H75.8649L76.1177 32.497L77.0728 32.0463C76.6608 33.2295 76.1739 34.1403 75.6121 34.7788C75.0502 35.3985 74.4509 35.8211 73.8142 36.0464C73.1962 36.253 72.5969 36.3563 72.0163 36.3563ZM73.2243 32.8069C73.861 32.8069 74.4135 32.6755 74.8817 32.4125C75.3686 32.1308 75.7712 31.7552 76.0896 31.2857C76.4267 30.8162 76.6702 30.3092 76.82 29.7646C76.9885 29.2012 77.0728 28.6472 77.0728 28.1026C77.0728 27.5392 76.9792 27.0603 76.7919 26.6659C76.6046 26.2715 76.3331 25.9711 75.9772 25.7645C75.6214 25.5391 75.1907 25.4264 74.685 25.4264C74.0483 25.4264 73.4865 25.5673 72.9995 25.849C72.5126 26.1307 72.11 26.5063 71.7916 26.9758C71.4732 27.4265 71.2298 27.9335 71.0612 28.4969C70.9114 29.0603 70.8365 29.6143 70.8365 30.159C70.8365 30.7036 70.9208 31.1825 71.0893 31.5956C71.2766 31.99 71.5481 32.2905 71.904 32.497C72.2785 32.7036 72.7186 32.8069 73.2243 32.8069Z" fill="white"/>
<path d="M89.9174 36.3563C88.7563 36.3563 87.745 36.1591 86.8835 35.7647C86.0408 35.3516 85.3291 34.807 84.7486 34.1309C84.1868 33.436 83.7654 32.6567 83.4845 31.7928C83.2036 30.9289 83.0631 30.0369 83.0631 29.1167C83.0631 28.1965 83.2036 27.3044 83.4845 26.4405C83.7654 25.5767 84.1868 24.8067 84.7486 24.1306C85.3291 23.4546 86.0408 22.9193 86.8835 22.525C87.745 22.1118 88.7563 21.9052 89.9174 21.9052C91.3407 21.9052 92.5768 22.2433 93.6255 22.9193C94.6743 23.5954 95.4608 24.6377 95.9852 26.0462L92.6142 27.3983C92.4082 26.7598 92.0898 26.2434 91.6591 25.849C91.2471 25.4546 90.6665 25.2574 89.9174 25.2574C89.2058 25.2574 88.6252 25.4452 88.1758 25.8208C87.745 26.1964 87.4266 26.6847 87.2206 27.2856C87.0146 27.8678 86.9116 28.4782 86.9116 29.1167C86.9116 29.7552 87.0146 30.3749 87.2206 30.9759C87.4266 31.5768 87.745 32.0651 88.1758 32.4407C88.6252 32.8163 89.2058 33.0041 89.9174 33.0041C90.6665 33.0041 91.2471 32.8069 91.6591 32.4125C92.0898 32.0182 92.4082 31.5017 92.6142 30.8632L95.9852 32.2153C95.4608 33.6051 94.6743 34.6473 93.6255 35.3422C92.5768 36.0183 91.3407 36.3563 89.9174 36.3563Z" fill="white"/>
<path d="M104.733 36.3563C103.497 36.3563 102.43 36.1591 101.531 35.7647C100.651 35.3704 99.9296 34.8351 99.3678 34.1591C98.8247 33.483 98.4221 32.7224 98.1599 31.8773C97.9164 31.0134 97.7947 30.1214 97.7947 29.2012C97.7947 28.3185 97.9164 27.4453 98.1599 26.5814C98.4221 25.7175 98.8153 24.9382 99.3397 24.2433C99.8641 23.5297 100.557 22.9663 101.418 22.5531C102.28 22.1212 103.31 21.9052 104.509 21.9052C105.576 21.9052 106.512 22.093 107.318 22.4686C108.142 22.8254 108.825 23.3325 109.368 23.9898C109.911 24.6283 110.314 25.3889 110.576 26.2715C110.857 27.1542 110.998 28.1026 110.998 29.1167C110.998 29.2857 110.988 29.4829 110.97 29.7082C110.97 29.9336 110.951 30.1871 110.913 30.4688H101.643C101.756 31.3327 102.121 31.9806 102.739 32.4125C103.357 32.8257 104.097 33.0323 104.958 33.0323C105.651 33.0323 106.344 32.9102 107.037 32.6661C107.73 32.4219 108.338 32.0745 108.863 31.6238L110.632 34.3281C109.94 34.8164 109.293 35.2107 108.694 35.5112C108.114 35.8117 107.505 36.0277 106.868 36.1591C106.25 36.2906 105.539 36.3563 104.733 36.3563ZM107.205 28.5251C107.243 28.3749 107.271 28.2246 107.29 28.0744C107.327 27.9242 107.346 27.7833 107.346 27.6518C107.346 27.2763 107.271 26.9382 107.121 26.6377C106.99 26.3185 106.803 26.0462 106.559 25.8208C106.316 25.5955 106.025 25.4264 105.688 25.3138C105.351 25.1823 104.977 25.1166 104.565 25.1166C103.909 25.1166 103.366 25.248 102.935 25.5109C102.523 25.7551 102.205 26.065 101.98 26.4405C101.774 26.8161 101.643 27.2011 101.587 27.5955H108.498L107.205 28.5251Z" fill="white"/>
<path d="M0.624561 7.79825C-0.238905 9.5301 -0.177565 15.3649 0.699017 16.9579C2.63837 20.4823 8.13377 18.8914 10.543 16.792C15.9685 12.0645 18.4974 11.8749 20.7977 13.7359C24.1942 16.4839 21.1332 21.7016 18.7871 24.7524C16.6061 27.5885 16.3029 30.532 16.6061 32.0766C17.542 36.8448 27.3818 37.3303 29.4249 33.0053C29.8044 32.2021 29.8044 31.1639 29.8044 29.0876V13.5197C29.8044 6.97681 28.4417 5.6113 21.9122 5.6113L6.48256 5.6113C4.23867 5.6113 1.77916 5.48247 0.624561 7.79825Z" fill="white"/>
<path d="M0.680803 23.965C-0.169297 25.5458 -0.240373 31.186 0.56416 32.954C2.4496 37.0974 12.2501 36.8681 13.1749 32.0622C13.6098 29.8021 12.6361 27.174 11.1755 24.8967C8.72598 21.0775 2.69864 20.2129 0.680803 23.965Z" fill="white"/>
<circle cx="17.9664" cy="17.1693" r="2.64618" fill="white"/>
</svg>
